<svg width="153" height="40" viewBox="0 0 153 40" fill="none" xmlns="http://www.w3.org/2000/svg">
<path d="M55.1904 10.8282C56.6268 9.91644 58.3003 9.44005 60.2338 9.41684C61.6746 9.41729 62.8523 9.659 63.7929 10.1102C64.5894 10.4923 65.3426 11.0374 66.0508 11.7559L65.022 12.8171C64.4887 12.3381 63.9238 11.9344 63.3266 11.609C62.4708 11.1428 61.428 10.9259 60.2362 10.915L60.2262 10.9149L60.2162 10.9151C58.7145 10.9443 57.3552 11.3998 56.159 12.2795C54.9893 13.1397 54.0657 14.2428 53.389 15.5778C52.7118 16.9137 52.3638 18.3264 52.3487 19.8082L52.3487 19.8153L52.3487 19.8224C52.3638 21.3041 52.7118 22.7168 53.389 24.0527C54.0657 25.3876 54.9893 26.4907 56.159 27.3509C57.3553 28.2307 58.7145 28.6861 60.2162 28.7153L60.2251 28.7154L60.234 28.7154C61.3823 28.7084 62.473 28.4596 63.4984 27.9687C64.3002 27.5848 65.0077 27.0777 65.6183 26.4498L66.847 27.5626C66.0846 28.3105 65.2096 28.9122 64.2186 29.3694C63.0291 29.9183 61.7036 30.2031 60.2315 30.2136C58.2989 30.1901 56.6262 29.7136 55.1904 28.8022C53.7366 27.8794 52.5998 26.6425 51.7748 25.0798C50.952 23.521 50.5271 21.7708 50.5116 19.8153C50.5271 17.8597 50.952 16.1095 51.7749 14.5507C52.5998 12.9879 53.7365 11.7511 55.1904 10.8282Z" fill="#0B132B"/>
<path d="M72 10.1134V8.46115H73.6831V10.1134H72Z" fill="#0B132B"/>
<path d="M72 29.8436V15.8908H73.6831V29.8436H72Z" fill="#0B132B"/>
<path d="M82.3557 16.6131C81.5293 17.1004 80.8266 17.7768 80.2458 18.6535C79.5586 19.6908 79.1742 21.0799 79.1479 22.8722V37.6124H80.831V28.7203C80.8287 28.6493 80.8365 28.5623 80.8689 28.4681L81.6516 26.1898C81.0433 25.2386 80.7324 24.1282 80.7078 22.881L80.7076 22.8672L80.7078 22.8533C80.7405 21.2133 81.2761 19.807 82.3362 18.6834L82.3557 16.6131Z" fill="#0B132B"/>
<path d="M86.4562 15.5517C85.2367 15.5466 84.0693 15.7972 82.9471 16.3061L82.9471 16.3061C82.7867 16.3789 82.6304 16.4578 82.4781 16.5428L82.4784 16.5468L82.6113 18.4104C83.642 17.4542 84.9352 16.9647 86.4457 16.9266L86.4633 16.9262L86.4809 16.9266C88.1342 16.9681 89.5132 17.5455 90.5475 18.691C91.5645 19.8174 92.0711 21.2225 92.0958 22.8566L92.096 22.8672L92.0958 22.8777C92.0711 24.5235 91.5655 25.9341 90.5461 27.0566L90.5461 27.0566C89.5112 28.1959 88.1322 28.7685 86.4799 28.8077L86.4633 28.8081L86.4467 28.8077C85.2492 28.7791 84.188 28.4679 83.2857 27.8659L83.3933 29.375C83.587 29.4786 83.8099 29.5861 84.0644 29.6968L84.0645 29.6969C84.7626 30.0006 85.7653 30.1862 87.1138 30.2135C88.5364 30.1955 89.7148 29.8552 90.68 29.2223L90.68 29.2222C91.669 28.5738 92.4274 27.707 92.9602 26.6082L92.9602 26.6082C93.4957 25.5042 93.7726 24.2625 93.7789 22.8707C93.7465 20.6221 93.0632 18.8826 91.7778 17.5816C90.4963 16.2845 88.7484 15.5891 86.4562 15.5517Z" fill="#0B132B"/>
<path d="M82.3415 27.0683L82.3416 27.0683C82.6333 27.3751 82.9484 27.6408 83.2857 27.8659L83.1434 25.87C82.7421 25.3851 82.4543 24.8299 82.2844 24.1957L82.2582 26.9789C82.2856 27.0089 82.3134 27.0387 82.3415 27.0683Z" fill="#0B132B"/>
<path d="M82.3101 21.4577C82.4175 21.0889 82.5661 20.7464 82.7553 20.4284L82.6113 18.4104C82.5188 18.4963 82.4284 18.5859 82.3401 18.6793L82.3362 18.6834L82.3101 21.4577Z" fill="#0B132B"/>
<path d="M98.6239 29.8436V8.1837H100.307V18.6453L101.507 17.4003C102.161 16.7226 102.871 16.2538 103.637 15.9753C104.424 15.6896 105.33 15.5439 106.366 15.5517L106.369 15.5517H106.876C108.056 15.6184 108.966 15.9103 109.649 16.3835C110.373 16.8856 110.892 17.4977 111.227 18.2215L111.227 18.2215C111.576 18.9766 111.747 19.7485 111.744 20.5432L111.744 20.5443V29.8436H110.061V21.4454C110.087 20.2896 109.794 19.2257 109.178 18.2745C108.485 17.2042 107.285 16.6452 105.774 16.4688L105.736 16.4643L105.697 16.4641C104.225 16.4554 102.949 16.9083 101.919 17.8452L101.919 17.8453C101.541 18.1893 101.235 18.594 100.995 19.0528C100.549 19.9055 100.331 20.9453 100.307 22.1305L100.307 22.1377V29.8436H98.6239Z" fill="#0B132B"/>
<path d="M119.248 17.448C120.409 16.3328 121.923 15.6869 123.841 15.5486V17.7032C122.536 17.829 121.415 18.2736 120.52 19.0734L120.52 19.0735C119.46 20.0216 118.936 21.2964 118.908 22.8219L118.908 22.8282V29.8436H117.225V22.8399C117.263 20.4461 117.963 18.6813 119.248 17.448Z" fill="#0B132B"/>
<path d="M129.318 29.8436V15.8908H131.001V29.8436H129.318Z" fill="#0B132B"/>
<path d="M129.318 10.1134V8.46115H131.001V10.1134H129.318Z" fill="#0B132B"/>
<path d="M138.364 29.9053H136.909L142.591 22.7969L137.621 15.8908H139.532L143.697 21.8684L148.199 15.8908H149.672L144.577 22.7759L149.883 29.9053H147.994L143.511 23.631L138.364 29.9053Z" fill="#0B132B"/>
<path d="M82.2269 26.9443V28.4578C82.2325 28.4638 82.2382 28.4701 82.2441 28.4764L82.2582 26.9789C82.2477 26.9674 82.2373 26.9559 82.2269 26.9443Z" fill="#0B132B"/>
<path d="M83.3933 29.375C82.9861 29.1573 82.708 28.9571 82.536 28.7814C82.4123 28.6549 82.3157 28.5538 82.2441 28.4764L82.2269 30.3077L82.8672 30.6423L82.8963 30.5723L83.3933 29.375Z" fill="#0B132B"/>
<path d="M83.5076 30.9769L83.3933 29.375L82.8963 30.5723L83.5075 30.9769L83.5075 30.9769L83.5076 30.9769Z" fill="#0B132B"/>
<path d="M82.3557 16.6131C82.3962 16.5893 82.437 16.5658 82.4781 16.5428L82.3706 15.0348L82.3557 16.6131Z" fill="#0B132B"/>
<path d="M82.8672 30.6423L83.5075 30.9769L82.8963 30.5723L82.8672 30.6423Z" fill="#0B132B"/>
<path fill-rule="evenodd" clip-rule="evenodd" d="M75.079 7.06521H70.6041V11.5093H75.079V7.06521ZM72 10.1134V8.46115H73.6831V10.1134H72ZM132.397 7.06521H127.922V11.5093H132.397V7.06521ZM129.318 10.1134V8.46115H131.001V10.1134H129.318ZM60.2297 8.02089H60.2257L60.2216 8.02094C58.0565 8.04622 56.1224 8.58319 54.4423 9.64967C52.7786 10.7057 51.4763 12.1261 50.5404 13.899C49.6031 15.6746 49.1319 17.6496 49.1157 19.8101L49.1156 19.8153L49.1157 19.8206C49.1319 21.9808 49.6031 23.9559 50.5404 25.7315L50.5404 25.7315C51.4763 27.5043 52.7786 28.9247 54.4423 29.9808C56.1224 31.0472 58.0565 31.5843 60.2216 31.6095L60.2279 31.6096L60.2343 31.6095C61.8876 31.5987 63.4141 31.278 64.8035 30.637C66.1813 30.0012 67.3713 29.1165 68.368 27.9856L68.8233 27.469L65.4814 24.4426L65.0179 25.0223C64.4372 25.7485 63.7318 26.3092 62.8956 26.7096C62.0612 27.1091 61.1766 27.3124 60.2344 27.3194C59.0194 27.2941 57.9436 26.9306 56.986 26.2264C55.9996 25.5009 55.2161 24.5697 54.6341 23.4215C54.0537 22.2764 53.7586 21.0769 53.7447 19.8153C53.7586 18.5536 54.0537 17.354 54.6341 16.209C55.2161 15.0607 55.9996 14.1294 56.986 13.4041C57.9433 12.7001 59.0189 12.3364 60.2334 12.3109C61.2677 12.3216 62.0637 12.5107 62.6588 12.8349C63.3171 13.1935 63.9439 13.6755 64.5379 14.2881L65.039 14.805L67.9598 11.7923L67.5382 11.3086C66.5992 10.2313 65.553 9.40628 64.3967 8.85159C63.2201 8.28715 61.8225 8.02089 60.2297 8.02089ZM55.1904 10.8282C56.6268 9.91644 58.3003 9.44005 60.2338 9.41684C61.6746 9.41729 62.8523 9.659 63.7929 10.1102C64.5894 10.4923 65.3426 11.0374 66.0508 11.7559L65.022 12.8171C64.4887 12.3381 63.9238 11.9344 63.3266 11.609C62.4708 11.1428 61.428 10.9259 60.2362 10.915L60.2262 10.9149L60.2162 10.9151C58.7145 10.9443 57.3552 11.3998 56.159 12.2795C54.9893 13.1397 54.0657 14.2428 53.389 15.5778C52.7118 16.9137 52.3638 18.3264 52.3487 19.8082L52.3487 19.8153L52.3487 19.8224C52.3638 21.3041 52.7118 22.7168 53.389 24.0527C54.0657 25.3876 54.9893 26.4907 56.159 27.3509C57.3553 28.2307 58.7145 28.6861 60.2162 28.7153L60.2251 28.7154L60.234 28.7154C61.3823 28.7084 62.473 28.4596 63.4984 27.9687C64.3002 27.5848 65.0077 27.0777 65.6183 26.4498L66.847 27.5626C66.0846 28.3105 65.2096 28.9122 64.2186 29.3694C63.0291 29.9183 61.7036 30.2031 60.2315 30.2136C58.2989 30.1901 56.6262 29.7136 55.1904 28.8022C53.7366 27.8794 52.5998 26.6425 51.7748 25.0798C50.952 23.521 50.5271 21.7708 50.5116 19.8153C50.5271 17.8597 50.952 16.1095 51.7749 14.5507C52.5998 12.9879 53.7365 11.7511 55.1904 10.8282ZM125.237 19.0536V14.1192L124.533 14.125C121.993 14.1459 119.885 14.9001 118.281 16.4411C116.661 17.9961 115.87 20.1561 115.829 22.8237L115.829 22.8291V31.2395H120.304V22.8407C120.327 21.6502 120.722 20.7664 121.451 20.1138C122.194 19.4493 123.203 19.0792 124.548 19.0623L125.237 19.0536ZM119.248 17.448C120.409 16.3328 121.923 15.6869 123.841 15.5486V17.7032C122.536 17.829 121.415 18.2736 120.52 19.0734L120.52 19.0735C119.46 20.0216 118.936 21.2964 118.908 22.8219L118.908 22.8282V29.8436H117.225V22.8399C117.263 20.4461 117.963 18.6813 119.248 17.448ZM82.9471 16.3061C84.0693 15.7972 85.2367 15.5466 86.4562 15.5517C88.7484 15.5891 90.4963 16.2845 91.7778 17.5816C93.0632 18.8826 93.7465 20.6221 93.7789 22.8707C93.7726 24.2625 93.4957 25.5042 92.9602 26.6082L92.9602 26.6082C92.4274 27.707 91.669 28.5738 90.68 29.2222L90.68 29.2223C89.7148 29.8552 88.5364 30.1955 87.1138 30.2135C85.7653 30.1862 84.7626 30.0006 84.0645 29.6969L84.0644 29.6968C83.8099 29.5861 83.587 29.4786 83.3933 29.375L83.2857 27.8659C84.188 28.4679 85.2492 28.7791 86.4467 28.8077L86.4633 28.8081L86.4799 28.8077C88.1322 28.7685 89.5112 28.1959 90.5461 27.0566L90.5461 27.0566C91.5655 25.9341 92.0711 24.5235 92.0958 22.8777L92.096 22.8672L92.0958 22.8566C92.0711 21.2225 91.5645 19.8174 90.5475 18.691C89.5132 17.5455 88.1342 16.9681 86.4809 16.9266L86.4633 16.9262L86.4457 16.9266C84.9352 16.9647 83.642 17.4542 82.6113 18.4104L82.4781 16.5428C82.6304 16.4578 82.7867 16.3789 82.9471 16.3061L82.9471 16.3061ZM82.3362 18.6834L82.3401 18.6793C82.4284 18.5859 82.5188 18.4963 82.6113 18.4104L82.7553 20.4284C82.9232 20.146 83.1232 19.883 83.3546 19.6382C84.1427 18.8044 85.1599 18.3592 86.4634 18.3226C87.7762 18.3593 88.7691 18.8044 89.5114 19.6265C90.2721 20.469 90.6776 21.5328 90.6999 22.8672C90.6776 24.2168 90.2711 25.283 89.5127 26.118L89.5127 26.1181C88.7709 26.9347 87.7777 27.377 86.4634 27.4117C85.1585 27.3771 84.141 26.9349 83.3532 26.1064L83.3532 26.1064C83.2801 26.0295 83.2102 25.9507 83.1434 25.87L83.2857 27.8659C82.9484 27.6408 82.6333 27.3751 82.3416 27.0683L82.3415 27.0683C82.3134 27.0387 82.2856 27.0089 82.2582 26.9789L82.2844 24.1957C82.1748 23.7866 82.1142 23.3445 82.1038 22.8673C82.115 22.3594 82.1842 21.8905 82.3101 21.4577L82.3362 18.6834ZM82.3557 16.6131C81.5293 17.1004 80.8266 17.7768 80.2458 18.6535C79.5586 19.6908 79.1742 21.0799 79.1479 22.8722V37.6124H80.831V28.7203C80.8287 28.6493 80.8365 28.5623 80.8689 28.4681L81.6516 26.1898C81.0433 25.2386 80.7324 24.1282 80.7078 22.881L80.7076 22.8672L80.7078 22.8533C80.7405 21.2133 81.2761 19.807 82.3362 18.6834L82.3557 16.6131ZM82.2441 28.4764C82.2382 28.4701 82.2325 28.4638 82.2269 28.4578V26.9443C82.2373 26.9559 82.2477 26.9674 82.2582 26.9789L82.2441 28.4764ZM82.2269 30.3077V39.0084H77.752V22.8622L77.7521 22.8573C77.7803 20.8816 78.2051 19.2063 79.0821 17.8825C79.9321 16.5994 81.0292 15.6431 82.3705 15.0348L82.3557 16.6131C82.3962 16.5893 82.437 16.5658 82.4781 16.5428L82.3706 15.0348C83.6755 14.443 85.0429 14.1492 86.4666 14.1558L86.4706 14.1558L86.4745 14.1559C89.0581 14.1972 91.1829 14.9932 92.7709 16.6005L92.2743 17.091L92.7709 16.6005C94.3546 18.2035 95.1395 20.3128 95.1748 22.8575L95.1749 22.8638L95.1749 22.87C95.1686 24.4509 94.8532 25.9042 94.2162 27.2174C93.5761 28.5374 92.6507 29.5994 91.4454 30.3896C90.2189 31.194 88.7663 31.5906 87.1191 31.6095L87.1082 31.6096L87.0974 31.6094C85.6534 31.5811 84.4427 31.3838 83.5076 30.9769L83.3933 29.375C82.9861 29.1573 82.708 28.9571 82.536 28.7814C82.4123 28.6549 82.3157 28.5538 82.2441 28.4764L82.2269 30.3077ZM83.5075 30.9769L82.2269 30.3077C82.5901 30.5438 83.0217 30.7655 83.5075 30.9769ZM75.079 14.4949H70.6041V31.2395H75.079V14.4949ZM72 29.8436V15.8908H73.6831V29.8436H72ZM132.397 14.4949H127.922V31.2395H132.397V14.4949ZM129.318 29.8436V15.8908H131.001V29.8436H129.318ZM140.261 14.4949H134.897L140.84 22.7526L134.006 31.3013H139.025L143.435 25.9253L147.276 31.3013H152.662L146.315 22.7735L152.441 14.4949H147.502L143.741 19.4895L140.261 14.4949ZM142.591 22.7969L137.621 15.8908H139.532L143.697 21.8684L148.199 15.8908H149.672L144.577 22.7759L149.883 29.9053H147.994L143.511 23.631L138.364 29.9053H136.909L142.591 22.7969Z" fill="#0B132B"/>
<path fill-rule="evenodd" clip-rule="evenodd" d="M103.161 14.6632C102.647 14.8497 102.161 15.1002 101.703 15.4121V6.78775H97.2279V31.2395H101.703V22.1522C101.737 20.5493 102.166 19.5083 102.859 18.8778C103.595 18.2076 104.51 17.8609 105.65 17.8599C106.904 18.0132 107.626 18.446 108.006 19.0331L108.006 19.0332C108.466 19.7429 108.687 20.5319 108.665 21.4207L108.665 21.429V31.2395H113.14V20.5476V20.5463C113.143 19.5412 112.926 18.5688 112.494 17.6354C112.047 16.6699 111.357 15.8697 110.444 15.2364L110.444 15.2363C109.492 14.5766 108.308 14.2316 106.934 14.1568L106.915 14.1558H106.374C105.202 14.1472 104.128 14.3118 103.161 14.6632ZM98.6239 8.1837V29.8436H100.307V22.1377L100.307 22.1305C100.331 20.9453 100.549 19.9055 100.995 19.0528C101.235 18.594 101.541 18.1893 101.919 17.8453L101.919 17.8452C102.949 16.9083 104.225 16.4554 105.697 16.4641L105.736 16.4643L105.774 16.4688C107.285 16.6452 108.485 17.2042 109.178 18.2745C109.794 19.2257 110.087 20.2896 110.061 21.4454V29.8436H111.744V20.5443L111.744 20.5432C111.747 19.7485 111.576 18.9766 111.227 18.2215L111.227 18.2215C110.892 17.4977 110.373 16.8856 109.649 16.3835C108.966 15.9103 108.056 15.6184 106.876 15.5517H106.369L106.366 15.5517C105.33 15.5439 104.424 15.6896 103.637 15.9753C102.871 16.2538 102.161 16.7226 101.507 17.4003L100.307 18.6453V8.1837H98.6239Z" fill="#0B132B"/>
<path fill-rule="evenodd" clip-rule="evenodd" d="M25.7095 16.1545C26.045 15.819 26.5889 15.819 26.9244 16.1545L35.0315 24.2617C35.367 24.597 35.367 25.1411 35.0315 25.4765L31.5603 28.9477C31.225 29.2832 30.6809 29.2832 30.3455 28.9477L22.2384 20.8406C21.9029 20.5051 21.9029 19.9611 22.2384 19.6256L25.7095 16.1545Z" fill="url(#paint0_linear_924_2574)"/>
<path fill-rule="evenodd" clip-rule="evenodd" d="M35.0082 6.4259C35.3479 6.08621 35.8985 6.08621 36.2383 6.4259L39.7527 9.9404C40.0924 10.2801 40.0924 10.8308 39.7527 11.1705L26.7756 24.1476C26.4359 24.4874 25.8852 24.4874 25.5455 24.1476L22.031 20.6332C21.6913 20.2935 21.6913 19.7427 22.031 19.4031L35.0082 6.4259Z" fill="url(#paint1_linear_924_2574)"/>
<path fill-rule="evenodd" clip-rule="evenodd" d="M23.6672 25.8668C24.0027 26.2022 24.0027 26.7463 23.6672 27.0816L15.7249 35.0241C15.3894 35.3596 14.8454 35.3596 14.5099 35.0241L11.0388 31.5529C10.7033 31.2175 10.7033 30.6734 11.0388 30.3381L18.9812 22.3956C19.3166 22.0601 19.8606 22.0601 20.1961 22.3956L23.6672 25.8668Z" fill="url(#paint2_linear_924_2574)"/>
<path fill-rule="evenodd" clip-rule="evenodd" d="M33.5608 35.0007C33.9005 35.3404 33.9005 35.891 33.5608 36.2308L30.0463 39.7452C29.7066 40.0849 29.156 40.0849 28.8162 39.7452L15.8391 26.7681C15.4994 26.4284 15.4994 25.8778 15.8391 25.538L19.3536 22.0234C19.6932 21.6839 20.244 21.6839 20.5836 22.0234L33.5608 35.0007Z" fill="url(#paint3_linear_924_2574)"/>
<path fill-rule="evenodd" clip-rule="evenodd" d="M16.2141 14.3136C15.8786 13.9781 15.8786 13.4342 16.2141 13.0987L24.3368 4.976C24.6723 4.64052 25.2162 4.64052 25.5517 4.976L29.0228 8.44712C29.3583 8.7826 29.3583 9.32653 29.0228 9.66201L20.9001 17.7848C20.5646 18.1202 20.0207 18.1202 19.6852 17.7848L16.2141 14.3136Z" fill="url(#paint4_linear_924_2574)"/>
<path fill-rule="evenodd" clip-rule="evenodd" d="M6.50151 4.99936C6.16182 4.65967 6.16182 4.10895 6.50151 3.76926L10.016 0.254764C10.3557 -0.0849213 10.9064 -0.0849213 11.2461 0.254764L24.2232 13.2319C24.5629 13.5716 24.5629 14.1223 24.2232 14.462L20.7087 17.9765C20.3691 18.3161 19.8183 18.3161 19.4786 17.9765L6.50151 4.99936Z" fill="url(#paint5_linear_924_2574)"/>
<path fill-rule="evenodd" clip-rule="evenodd" d="M14.1262 23.6478C13.7907 23.9831 13.2468 23.9831 12.9113 23.6478L4.97601 15.7125C4.64051 15.377 4.64051 14.833 4.97601 14.4975L8.44711 11.0264C8.78261 10.691 9.32654 10.691 9.66202 11.0264L17.5973 18.9618C17.9328 19.2971 17.9328 19.8411 17.5973 20.1766L14.1262 23.6478Z" fill="url(#paint6_linear_924_2574)"/>
<path fill-rule="evenodd" clip-rule="evenodd" d="M4.99934 33.5482C4.65967 33.8878 4.10895 33.8878 3.76926 33.5482L0.254751 30.0336C-0.0849171 29.6941 -0.0849171 29.1433 0.254751 28.8035L13.2319 15.8264C13.5716 15.4868 14.1223 15.4868 14.462 15.8264L17.9765 19.3409C18.3162 19.6806 18.3162 20.2314 17.9765 20.571L4.99934 33.5482Z" fill="url(#paint7_linear_924_2574)"/>
<defs>
<linearGradient id="paint0_linear_924_2574" x1="33.296" y1="27.2121" x2="23.9739" y2="17.8901" gradientUnits="userSpaceOnUse">
<stop stop-color="#155DFF"/>
<stop offset="0.011" stop-color="#145CFE"/>
<stop offset="0.022" stop-color="#145CFE"/>
<stop offset="0.033" stop-color="#145CFE"/>
<stop offset="0.044" stop-color="#145CFE"/>
<stop offset="0.056" stop-color="#145CFE"/>
<stop offset="0.067" stop-color="#145CFE"/>
<stop offset="0.078" stop-color="#145CFE"/>
<stop offset="0.089" stop-color="#145CFE"/>
<stop offset="0.1" stop-color="#145CFD"/>
<stop offset="0.111" stop-color="#145CFD"/>
<stop offset="0.122" stop-color="#145CFD"/>
<stop offset="0.133" stop-color="#145CFC"/>
<stop offset="0.144" stop-color="#145BFC"/>
<stop offset="0.156" stop-color="#145BFC"/>
<stop offset="0.167" stop-color="#145BFB"/>
<stop offset="0.178" stop-color="#145BFB"/>
<stop offset="0.189" stop-color="#145BFB"/>
<stop offset="0.2" stop-color="#135AFA"/>
<stop offset="0.211" stop-color="#135AFA"/>
<stop offset="0.222" stop-color="#135AF9"/>
<stop offset="0.233" stop-color="#135AF9"/>
<stop offset="0.244" stop-color="#135AF8"/>
<stop offset="0.256" stop-color="#1359F7"/>
<stop offset="0.267" stop-color="#1359F7"/>
<stop offset="0.278" stop-color="#1359F6"/>
<stop offset="0.289" stop-color="#1258F6"/>
<stop offset="0.3" stop-color="#1258F5"/>
<stop offset="0.311" stop-color="#1258F4"/>
<stop offset="0.322" stop-color="#1257F4"/>
<stop offset="0.333" stop-color="#1257F3"/>
<stop offset="0.344" stop-color="#1257F2"/>
<stop offset="0.356" stop-color="#1156F1"/>
<stop offset="0.367" stop-color="#1156F1"/>
<stop offset="0.378" stop-color="#1156F0"/>
<stop offset="0.389" stop-color="#1155EF"/>
<stop offset="0.4" stop-color="#1155EE"/>
<stop offset="0.411" stop-color="#1155ED"/>
<stop offset="0.422" stop-color="#1054EC"/>
<stop offset="0.433" stop-color="#1054EC"/>
<stop offset="0.444" stop-color="#1053EB"/>
<stop offset="0.456" stop-color="#1053EA"/>
<stop offset="0.467" stop-color="#0F52E9"/>
<stop offset="0.478" stop-color="#0F52E8"/>
<stop offset="0.489" stop-color="#0F52E7"/>
<stop offset="0.5" stop-color="#0F51E6"/>
<stop offset="0.511" stop-color="#0F51E5"/>
<stop offset="0.522" stop-color="#0E50E4"/>
<stop offset="0.533" stop-color="#0E50E2"/>
<stop offset="0.544" stop-color="#0E4FE1"/>
<stop offset="0.556" stop-color="#0E4FE0"/>
<stop offset="0.567" stop-color="#0D4EDF"/>
<stop offset="0.578" stop-color="#0D4DDE"/>
<stop offset="0.589" stop-color="#0D4DDD"/>
<stop offset="0.6" stop-color="#0C4CDC"/>
<stop offset="0.611" stop-color="#0C4CDA"/>
<stop offset="0.622" stop-color="#0C4BD9"/>
<stop offset="0.633" stop-color="#0C4BD8"/>
<stop offset="0.644" stop-color="#0B4AD7"/>
<stop offset="0.656" stop-color="#0B49D5"/>
<stop offset="0.667" stop-color="#0B49D4"/>
<stop offset="0.678" stop-color="#0A48D3"/>
<stop offset="0.689" stop-color="#0A48D1"/>
<stop offset="0.7" stop-color="#0A47D0"/>
<stop offset="0.711" stop-color="#0946CE"/>
<stop offset="0.722" stop-color="#0946CD"/>
<stop offset="0.733" stop-color="#0945CC"/>
<stop offset="0.744" stop-color="#0844CA"/>
<stop offset="0.756" stop-color="#0844C9"/>
<stop offset="0.767" stop-color="#0843C7"/>
<stop offset="0.778" stop-color="#0742C6"/>
<stop offset="0.789" stop-color="#0742C4"/>
<stop offset="0.8" stop-color="#0741C3"/>
<stop offset="0.811" stop-color="#0640C1"/>
<stop offset="0.822" stop-color="#063FBF"/>
<stop offset="0.833" stop-color="#063FBE"/>
<stop offset="0.844" stop-color="#053EBC"/>
<stop offset="0.856" stop-color="#053DBB"/>
<stop offset="0.867" stop-color="#043CB9"/>
<stop offset="0.878" stop-color="#043CB7"/>
<stop offset="0.889" stop-color="#043BB6"/>
<stop offset="0.9" stop-color="#033AB4"/>
<stop offset="0.911" stop-color="#0339B2"/>
<stop offset="0.922" stop-color="#0238B0"/>
<stop offset="0.933" stop-color="#0238AF"/>
<stop offset="0.944" stop-color="#0237AD"/>
<stop offset="0.956" stop-color="#0136AB"/>
<stop offset="0.967" stop-color="#0135A9"/>
<stop offset="0.978" stop-color="#0034A7"/>
<stop offset="0.989" stop-color="#0033A5"/>
<stop offset="1" stop-color="#0033A4"/>
</linearGradient>
<linearGradient id="paint1_linear_924_2574" x1="23.7883" y1="22.3904" x2="37.9955" y2="8.18317" gradientUnits="userSpaceOnUse">
<stop stop-color="#2266FF"/>
<stop offset="0.55" stop-color="#4F85FF"/>
<stop offset="1" stop-color="#75A0FF"/>
</linearGradient>
<linearGradient id="paint2_linear_924_2574" x1="12.7744" y1="33.2885" x2="21.9316" y2="24.1312" gradientUnits="userSpaceOnUse">
<stop stop-color="#155DFF"/>
<stop offset="0.011" stop-color="#145CFE"/>
<stop offset="0.022" stop-color="#145CFE"/>
<stop offset="0.033" stop-color="#145CFE"/>
<stop offset="0.044" stop-color="#145CFE"/>
<stop offset="0.056" stop-color="#145CFE"/>
<stop offset="0.067" stop-color="#145CFE"/>
<stop offset="0.078" stop-color="#145CFE"/>
<stop offset="0.089" stop-color="#145CFE"/>
<stop offset="0.1" stop-color="#145CFD"/>
<stop offset="0.111" stop-color="#145CFD"/>
<stop offset="0.122" stop-color="#145CFD"/>
<stop offset="0.133" stop-color="#145CFC"/>
<stop offset="0.144" stop-color="#145BFC"/>
<stop offset="0.156" stop-color="#145BFC"/>
<stop offset="0.167" stop-color="#145BFB"/>
<stop offset="0.178" stop-color="#145BFB"/>
<stop offset="0.189" stop-color="#145BFB"/>
<stop offset="0.2" stop-color="#135AFA"/>
<stop offset="0.211" stop-color="#135AFA"/>
<stop offset="0.222" stop-color="#135AF9"/>
<stop offset="0.233" stop-color="#135AF9"/>
<stop offset="0.244" stop-color="#135AF8"/>
<stop offset="0.256" stop-color="#1359F7"/>
<stop offset="0.267" stop-color="#1359F7"/>
<stop offset="0.278" stop-color="#1359F6"/>
<stop offset="0.289" stop-color="#1258F6"/>
<stop offset="0.3" stop-color="#1258F5"/>
<stop offset="0.311" stop-color="#1258F4"/>
<stop offset="0.322" stop-color="#1257F4"/>
<stop offset="0.333" stop-color="#1257F3"/>
<stop offset="0.344" stop-color="#1257F2"/>
<stop offset="0.356" stop-color="#1156F1"/>
<stop offset="0.367" stop-color="#1156F1"/>
<stop offset="0.378" stop-color="#1156F0"/>
<stop offset="0.389" stop-color="#1155EF"/>
<stop offset="0.4" stop-color="#1155EE"/>
<stop offset="0.411" stop-color="#1155ED"/>
<stop offset="0.422" stop-color="#1054EC"/>
<stop offset="0.433" stop-color="#1054EC"/>
<stop offset="0.444" stop-color="#1053EB"/>
<stop offset="0.456" stop-color="#1053EA"/>
<stop offset="0.467" stop-color="#0F52E9"/>
<stop offset="0.478" stop-color="#0F52E8"/>
<stop offset="0.489" stop-color="#0F52E7"/>
<stop offset="0.5" stop-color="#0F51E6"/>
<stop offset="0.511" stop-color="#0F51E5"/>
<stop offset="0.522" stop-color="#0E50E4"/>
<stop offset="0.533" stop-color="#0E50E2"/>
<stop offset="0.544" stop-color="#0E4FE1"/>
<stop offset="0.556" stop-color="#0E4FE0"/>
<stop offset="0.567" stop-color="#0D4EDF"/>
<stop offset="0.578" stop-color="#0D4DDE"/>
<stop offset="0.589" stop-color="#0D4DDD"/>
<stop offset="0.6" stop-color="#0C4CDC"/>
<stop offset="0.611" stop-color="#0C4CDA"/>
<stop offset="0.622" stop-color="#0C4BD9"/>
<stop offset="0.633" stop-color="#0C4BD8"/>
<stop offset="0.644" stop-color="#0B4AD7"/>
<stop offset="0.656" stop-color="#0B49D5"/>
<stop offset="0.667" stop-color="#0B49D4"/>
<stop offset="0.678" stop-color="#0A48D3"/>
<stop offset="0.689" stop-color="#0A48D1"/>
<stop offset="0.7" stop-color="#0A47D0"/>
<stop offset="0.711" stop-color="#0946CE"/>
<stop offset="0.722" stop-color="#0946CD"/>
<stop offset="0.733" stop-color="#0945CC"/>
<stop offset="0.744" stop-color="#0844CA"/>
<stop offset="0.756" stop-color="#0844C9"/>
<stop offset="0.767" stop-color="#0843C7"/>
<stop offset="0.778" stop-color="#0742C6"/>
<stop offset="0.789" stop-color="#0742C4"/>
<stop offset="0.8" stop-color="#0741C3"/>
<stop offset="0.811" stop-color="#0640C1"/>
<stop offset="0.822" stop-color="#063FBF"/>
<stop offset="0.833" stop-color="#063FBE"/>
<stop offset="0.844" stop-color="#053EBC"/>
<stop offset="0.856" stop-color="#053DBB"/>
<stop offset="0.867" stop-color="#043CB9"/>
<stop offset="0.878" stop-color="#043CB7"/>
<stop offset="0.889" stop-color="#043BB6"/>
<stop offset="0.9" stop-color="#033AB4"/>
<stop offset="0.911" stop-color="#0339B2"/>
<stop offset="0.922" stop-color="#0238B0"/>
<stop offset="0.933" stop-color="#0238AF"/>
<stop offset="0.944" stop-color="#0237AD"/>
<stop offset="0.956" stop-color="#0136AB"/>
<stop offset="0.967" stop-color="#0135A9"/>
<stop offset="0.978" stop-color="#0034A7"/>
<stop offset="0.989" stop-color="#0033A5"/>
<stop offset="1" stop-color="#0033A4"/>
</linearGradient>
<linearGradient id="paint3_linear_924_2574" x1="17.5963" y1="23.7808" x2="31.8036" y2="37.988" gradientUnits="userSpaceOnUse">
<stop stop-color="#2266FF"/>
<stop offset="0.55" stop-color="#4F85FF"/>
<stop offset="1" stop-color="#75A0FF"/>
</linearGradient>
<linearGradient id="paint4_linear_924_2574" x1="27.2872" y1="6.71156" x2="17.9496" y2="16.0492" gradientUnits="userSpaceOnUse">
<stop stop-color="#155DFF"/>
<stop offset="0.011" stop-color="#145CFE"/>
<stop offset="0.022" stop-color="#145CFE"/>
<stop offset="0.033" stop-color="#145CFE"/>
<stop offset="0.044" stop-color="#145CFE"/>
<stop offset="0.056" stop-color="#145CFE"/>
<stop offset="0.067" stop-color="#145CFE"/>
<stop offset="0.078" stop-color="#145CFE"/>
<stop offset="0.089" stop-color="#145CFE"/>
<stop offset="0.1" stop-color="#145CFD"/>
<stop offset="0.111" stop-color="#145CFD"/>
<stop offset="0.122" stop-color="#145CFD"/>
<stop offset="0.133" stop-color="#145CFC"/>
<stop offset="0.144" stop-color="#145BFC"/>
<stop offset="0.156" stop-color="#145BFC"/>
<stop offset="0.167" stop-color="#145BFB"/>
<stop offset="0.178" stop-color="#145BFB"/>
<stop offset="0.189" stop-color="#145BFB"/>
<stop offset="0.2" stop-color="#135AFA"/>
<stop offset="0.211" stop-color="#135AFA"/>
<stop offset="0.222" stop-color="#135AF9"/>
<stop offset="0.233" stop-color="#135AF9"/>
<stop offset="0.244" stop-color="#135AF8"/>
<stop offset="0.256" stop-color="#1359F7"/>
<stop offset="0.267" stop-color="#1359F7"/>
<stop offset="0.278" stop-color="#1359F6"/>
<stop offset="0.289" stop-color="#1258F6"/>
<stop offset="0.3" stop-color="#1258F5"/>
<stop offset="0.311" stop-color="#1258F4"/>
<stop offset="0.322" stop-color="#1257F4"/>
<stop offset="0.333" stop-color="#1257F3"/>
<stop offset="0.344" stop-color="#1257F2"/>
<stop offset="0.356" stop-color="#1156F1"/>
<stop offset="0.367" stop-color="#1156F1"/>
<stop offset="0.378" stop-color="#1156F0"/>
<stop offset="0.389" stop-color="#1155EF"/>
<stop offset="0.4" stop-color="#1155EE"/>
<stop offset="0.411" stop-color="#1155ED"/>
<stop offset="0.422" stop-color="#1054EC"/>
<stop offset="0.433" stop-color="#1054EC"/>
<stop offset="0.444" stop-color="#1053EB"/>
<stop offset="0.456" stop-color="#1053EA"/>
<stop offset="0.467" stop-color="#0F52E9"/>
<stop offset="0.478" stop-color="#0F52E8"/>
<stop offset="0.489" stop-color="#0F52E7"/>
<stop offset="0.5" stop-color="#0F51E6"/>
<stop offset="0.511" stop-color="#0F51E5"/>
<stop offset="0.522" stop-color="#0E50E4"/>
<stop offset="0.533" stop-color="#0E50E2"/>
<stop offset="0.544" stop-color="#0E4FE1"/>
<stop offset="0.556" stop-color="#0E4FE0"/>
<stop offset="0.567" stop-color="#0D4EDF"/>
<stop offset="0.578" stop-color="#0D4DDE"/>
<stop offset="0.589" stop-color="#0D4DDD"/>
<stop offset="0.6" stop-color="#0C4CDC"/>
<stop offset="0.611" stop-color="#0C4CDA"/>
<stop offset="0.622" stop-color="#0C4BD9"/>
<stop offset="0.633" stop-color="#0C4BD8"/>
<stop offset="0.644" stop-color="#0B4AD7"/>
<stop offset="0.656" stop-color="#0B49D5"/>
<stop offset="0.667" stop-color="#0B49D4"/>
<stop offset="0.678" stop-color="#0A48D3"/>
<stop offset="0.689" stop-color="#0A48D1"/>
<stop offset="0.7" stop-color="#0A47D0"/>
<stop offset="0.711" stop-color="#0946CE"/>
<stop offset="0.722" stop-color="#0946CD"/>
<stop offset="0.733" stop-color="#0945CC"/>
<stop offset="0.744" stop-color="#0844CA"/>
<stop offset="0.756" stop-color="#0844C9"/>
<stop offset="0.767" stop-color="#0843C7"/>
<stop offset="0.778" stop-color="#0742C6"/>
<stop offset="0.789" stop-color="#0742C4"/>
<stop offset="0.8" stop-color="#0741C3"/>
<stop offset="0.811" stop-color="#0640C1"/>
<stop offset="0.822" stop-color="#063FBF"/>
<stop offset="0.833" stop-color="#063FBE"/>
<stop offset="0.844" stop-color="#053EBC"/>
<stop offset="0.856" stop-color="#053DBB"/>
<stop offset="0.867" stop-color="#043CB9"/>
<stop offset="0.878" stop-color="#043CB7"/>
<stop offset="0.889" stop-color="#043BB6"/>
<stop offset="0.9" stop-color="#033AB4"/>
<stop offset="0.911" stop-color="#0339B2"/>
<stop offset="0.922" stop-color="#0238B0"/>
<stop offset="0.933" stop-color="#0238AF"/>
<stop offset="0.944" stop-color="#0237AD"/>
<stop offset="0.956" stop-color="#0136AB"/>
<stop offset="0.967" stop-color="#0135A9"/>
<stop offset="0.978" stop-color="#0034A7"/>
<stop offset="0.989" stop-color="#0033A5"/>
<stop offset="1" stop-color="#0033A4"/>
</linearGradient>
<linearGradient id="paint5_linear_924_2574" x1="22.466" y1="16.2193" x2="8.25873" y2="2.01204" gradientUnits="userSpaceOnUse">
<stop stop-color="#2266FF"/>
<stop offset="0.55" stop-color="#4F85FF"/>
<stop offset="1" stop-color="#75A0FF"/>
</linearGradient>
<linearGradient id="paint6_linear_924_2574" x1="6.71157" y1="12.762" x2="15.8617" y2="21.9121" gradientUnits="userSpaceOnUse">
<stop stop-color="#155DFF"/>
<stop offset="0.011" stop-color="#145CFE"/>
<stop offset="0.022" stop-color="#145CFE"/>
<stop offset="0.033" stop-color="#145CFE"/>
<stop offset="0.044" stop-color="#145CFE"/>
<stop offset="0.056" stop-color="#145CFE"/>
<stop offset="0.067" stop-color="#145CFE"/>
<stop offset="0.078" stop-color="#145CFE"/>
<stop offset="0.089" stop-color="#145CFE"/>
<stop offset="0.1" stop-color="#145CFD"/>
<stop offset="0.111" stop-color="#145CFD"/>
<stop offset="0.122" stop-color="#145CFD"/>
<stop offset="0.133" stop-color="#145CFC"/>
<stop offset="0.144" stop-color="#145BFC"/>
<stop offset="0.156" stop-color="#145BFC"/>
<stop offset="0.167" stop-color="#145BFB"/>
<stop offset="0.178" stop-color="#145BFB"/>
<stop offset="0.189" stop-color="#145BFB"/>
<stop offset="0.2" stop-color="#135AFA"/>
<stop offset="0.211" stop-color="#135AFA"/>
<stop offset="0.222" stop-color="#135AF9"/>
<stop offset="0.233" stop-color="#135AF9"/>
<stop offset="0.244" stop-color="#135AF8"/>
<stop offset="0.256" stop-color="#1359F7"/>
<stop offset="0.267" stop-color="#1359F7"/>
<stop offset="0.278" stop-color="#1359F6"/>
<stop offset="0.289" stop-color="#1258F6"/>
<stop offset="0.3" stop-color="#1258F5"/>
<stop offset="0.311" stop-color="#1258F4"/>
<stop offset="0.322" stop-color="#1257F4"/>
<stop offset="0.333" stop-color="#1257F3"/>
<stop offset="0.344" stop-color="#1257F2"/>
<stop offset="0.356" stop-color="#1156F1"/>
<stop offset="0.367" stop-color="#1156F1"/>
<stop offset="0.378" stop-color="#1156F0"/>
<stop offset="0.389" stop-color="#1155EF"/>
<stop offset="0.4" stop-color="#1155EE"/>
<stop offset="0.411" stop-color="#1155ED"/>
<stop offset="0.422" stop-color="#1054EC"/>
<stop offset="0.433" stop-color="#1054EC"/>
<stop offset="0.444" stop-color="#1053EB"/>
<stop offset="0.456" stop-color="#1053EA"/>
<stop offset="0.467" stop-color="#0F52E9"/>
<stop offset="0.478" stop-color="#0F52E8"/>
<stop offset="0.489" stop-color="#0F52E7"/>
<stop offset="0.5" stop-color="#0F51E6"/>
<stop offset="0.511" stop-color="#0F51E5"/>
<stop offset="0.522" stop-color="#0E50E4"/>
<stop offset="0.533" stop-color="#0E50E2"/>
<stop offset="0.544" stop-color="#0E4FE1"/>
<stop offset="0.556" stop-color="#0E4FE0"/>
<stop offset="0.567" stop-color="#0D4EDF"/>
<stop offset="0.578" stop-color="#0D4DDE"/>
<stop offset="0.589" stop-color="#0D4DDD"/>
<stop offset="0.6" stop-color="#0C4CDC"/>
<stop offset="0.611" stop-color="#0C4CDA"/>
<stop offset="0.622" stop-color="#0C4BD9"/>
<stop offset="0.633" stop-color="#0C4BD8"/>
<stop offset="0.644" stop-color="#0B4AD7"/>
<stop offset="0.656" stop-color="#0B49D5"/>
<stop offset="0.667" stop-color="#0B49D4"/>
<stop offset="0.678" stop-color="#0A48D3"/>
<stop offset="0.689" stop-color="#0A48D1"/>
<stop offset="0.7" stop-color="#0A47D0"/>
<stop offset="0.711" stop-color="#0946CE"/>
<stop offset="0.722" stop-color="#0946CD"/>
<stop offset="0.733" stop-color="#0945CC"/>
<stop offset="0.744" stop-color="#0844CA"/>
<stop offset="0.756" stop-color="#0844C9"/>
<stop offset="0.767" stop-color="#0843C7"/>
<stop offset="0.778" stop-color="#0742C6"/>
<stop offset="0.789" stop-color="#0742C4"/>
<stop offset="0.8" stop-color="#0741C3"/>
<stop offset="0.811" stop-color="#0640C1"/>
<stop offset="0.822" stop-color="#063FBF"/>
<stop offset="0.833" stop-color="#063FBE"/>
<stop offset="0.844" stop-color="#053EBC"/>
<stop offset="0.856" stop-color="#053DBB"/>
<stop offset="0.867" stop-color="#043CB9"/>
<stop offset="0.878" stop-color="#043CB7"/>
<stop offset="0.889" stop-color="#043BB6"/>
<stop offset="0.9" stop-color="#033AB4"/>
<stop offset="0.911" stop-color="#0339B2"/>
<stop offset="0.922" stop-color="#0238B0"/>
<stop offset="0.933" stop-color="#0238AF"/>
<stop offset="0.944" stop-color="#0237AD"/>
<stop offset="0.956" stop-color="#0136AB"/>
<stop offset="0.967" stop-color="#0135A9"/>
<stop offset="0.978" stop-color="#0034A7"/>
<stop offset="0.989" stop-color="#0033A5"/>
<stop offset="1" stop-color="#0033A4"/>
</linearGradient>
<linearGradient id="paint7_linear_924_2574" x1="16.2192" y1="17.5837" x2="2.012" y2="31.791" gradientUnits="userSpaceOnUse">
<stop stop-color="#2266FF"/>
<stop offset="0.55" stop-color="#4F85FF"/>
<stop offset="1" stop-color="#75A0FF"/>
</linearGradient>
</defs>
</svg>
